<svg width="165" height="25" viewBox="0 0 165 25" fill="none" xmlns="http://www.w3.org/2000/svg">
<path d="M4.17677 6.37506C4.56757 5.74 5.12936 5.22706 5.86213 4.83625C6.59489 4.44545 7.4335 4.25004 8.37796 4.25004C9.50153 4.25004 10.5193 4.53501 11.4312 5.10494C12.343 5.67487 13.0595 6.48905 13.5806 7.54749C14.118 8.60593 14.3866 9.83535 14.3866 11.2357C14.3866 12.6361 14.118 13.8737 13.5806 14.9484C13.0595 16.0069 12.343 16.8292 11.4312 17.4154C10.5193 17.9853 9.50153 18.2703 8.37796 18.2703C7.41722 18.2703 6.57861 18.083 5.86213 17.7085C5.14565 17.3177 4.58386 16.8048 4.17677 16.1697V18.0749H0V0H4.17677V6.37506ZM10.1366 11.2357C10.1366 10.1936 9.84349 9.37941 9.25728 8.79319C8.68735 8.19069 7.97901 7.88945 7.13226 7.88945C6.30179 7.88945 5.59345 8.19069 5.00723 8.79319C4.4373 9.39569 4.15234 10.218 4.15234 11.2602C4.15234 12.3023 4.4373 13.1247 5.00723 13.7271C5.59345 14.3296 6.30179 14.6309 7.13226 14.6309C7.96272 14.6309 8.67106 14.3296 9.25728 13.7271C9.84349 13.1084 10.1366 12.2779 10.1366 11.2357Z" fill="#0F241D"/>
<path d="M29.4257 11.0403C29.4257 11.4311 29.4013 11.8382 29.3524 12.2616H19.8997C19.9649 13.1084 20.2336 13.7597 20.7058 14.2157C21.1943 14.6553 21.7887 14.8751 22.4889 14.8751C23.531 14.8751 24.2556 14.4355 24.6627 13.5562H29.1082C28.8802 14.4518 28.465 15.2578 27.8625 15.9743C27.2763 16.6908 26.5354 17.2526 25.6397 17.6597C24.7441 18.0668 23.7427 18.2703 22.6354 18.2703C21.3001 18.2703 20.1114 17.9853 19.0693 17.4154C18.0271 16.8455 17.2129 16.0313 16.6267 14.9729C16.0405 13.9144 15.7474 12.6769 15.7474 11.2602C15.7474 9.84349 16.0324 8.60593 16.6023 7.54749C17.1885 6.48905 18.0027 5.67487 19.0449 5.10494C20.087 4.53501 21.2839 4.25004 22.6354 4.25004C23.9544 4.25004 25.1268 4.52687 26.1527 5.08051C27.1786 5.63416 27.9765 6.42391 28.5464 7.44979C29.1326 8.47566 29.4257 9.67251 29.4257 11.0403ZM25.1512 9.94119C25.1512 9.22471 24.907 8.65478 24.4185 8.2314C23.93 7.80803 23.3193 7.59634 22.5866 7.59634C21.8864 7.59634 21.292 7.79989 20.8035 8.20698C20.3313 8.61407 20.0382 9.19214 19.9242 9.94119H25.1512Z" fill="#0F241D"/>
<path d="M30.7987 11.2357C30.7987 9.83535 31.0592 8.60593 31.5803 7.54749C32.1177 6.48905 32.8423 5.67487 33.7542 5.10494C34.6661 4.53501 35.6838 4.25004 36.8074 4.25004C37.7681 4.25004 38.6067 4.44545 39.3232 4.83625C40.056 5.22706 40.6178 5.74 41.0086 6.37506V4.44545H45.1853V18.0749H41.0086V16.1453C40.6015 16.7803 40.0315 17.2933 39.2988 17.6841C38.5823 18.0749 37.7437 18.2703 36.7829 18.2703C35.6757 18.2703 34.6661 17.9853 33.7542 17.4154C32.8423 16.8292 32.1177 16.0069 31.5803 14.9484C31.0592 13.8737 30.7987 12.6361 30.7987 11.2357ZM41.0086 11.2602C41.0086 10.218 40.7155 9.39569 40.1292 8.79319C39.5593 8.19069 38.8591 7.88945 38.0286 7.88945C37.1982 7.88945 36.4898 8.19069 35.9036 8.79319C35.3337 9.37941 35.0487 10.1936 35.0487 11.2357C35.0487 12.2779 35.3337 13.1084 35.9036 13.7271C36.4898 14.3296 37.1982 14.6309 38.0286 14.6309C38.8591 14.6309 39.5593 14.3296 40.1292 13.7271C40.7155 13.1247 41.0086 12.3023 41.0086 11.2602Z" fill="#0F241D"/>
<path d="M61.6655 4.44545V18.0749H57.4887V16.2186C57.0654 16.8211 56.4873 17.3096 55.7545 17.6841C55.038 18.0423 54.2401 18.2214 53.3608 18.2214C52.3187 18.2214 51.3986 17.9935 50.6007 17.5375C49.8028 17.0653 49.1841 16.3895 48.7444 15.5102C48.3047 14.6309 48.0849 13.5969 48.0849 12.4082V4.44545H52.2372V11.8464C52.2372 12.7583 52.4734 13.4666 52.9456 13.9714C53.4178 14.4762 54.0529 14.7286 54.8508 14.7286C55.665 14.7286 56.3082 14.4762 56.7804 13.9714C57.2526 13.4666 57.4887 12.7583 57.4887 11.8464V4.44545H61.6655Z" fill="#0F241D"/>
<path d="M72.262 14.5332V18.0749H70.137C68.6226 18.0749 67.442 17.7085 66.5953 16.9757C65.7485 16.2267 65.3251 15.0136 65.3251 13.3363V7.91387H63.6642V4.44545H65.3251V1.12357H69.5019V4.44545H72.2376V7.91387H69.5019V13.3852C69.5019 13.7923 69.5996 14.0854 69.795 14.2645C69.9904 14.4436 70.3161 14.5332 70.772 14.5332H72.262Z" fill="#0F241D"/>
<path d="M88.5111 4.44545L79.9621 24.5477H75.4678L78.5943 17.6108L73.0497 4.44545H77.715L80.8659 12.97L83.9923 4.44545H88.5111Z" fill="#0F241D"/>
<path d="M95.3957 18.2703C94.207 18.2703 93.1486 18.0668 92.2204 17.6597C91.2922 17.2526 90.5595 16.6989 90.0221 15.9987C89.4847 15.2822 89.1835 14.4843 89.1183 13.605H93.2463C93.2951 14.0772 93.5149 14.4599 93.9058 14.753C94.2966 15.0461 94.7769 15.1927 95.3469 15.1927C95.8679 15.1927 96.2669 15.095 96.5437 14.8996C96.8368 14.6879 96.9834 14.4192 96.9834 14.0935C96.9834 13.7027 96.7798 13.4178 96.3727 13.2386C95.9656 13.0432 95.3061 12.8315 94.3943 12.6036C93.4172 12.3756 92.6031 12.1395 91.9517 11.8952C91.3004 11.6347 90.7386 11.2357 90.2663 10.6984C89.7941 10.1447 89.558 9.40383 89.558 8.47566C89.558 7.69404 89.7697 6.9857 90.1931 6.35064C90.6327 5.69929 91.2678 5.18635 92.0983 4.81183C92.945 4.4373 93.9465 4.25004 95.1026 4.25004C96.8124 4.25004 98.1558 4.67342 99.1328 5.52017C100.126 6.36692 100.696 7.4905 100.843 8.89089H96.9834C96.9182 8.41867 96.7065 8.04414 96.3483 7.76732C96.0063 7.4905 95.5504 7.35208 94.9805 7.35208C94.492 7.35208 94.1174 7.44979 93.8569 7.64519C93.5964 7.82431 93.4661 8.07671 93.4661 8.40238C93.4661 8.79319 93.6696 9.0863 94.0767 9.2817C94.5001 9.47711 95.1515 9.67251 96.0308 9.86791C97.0404 10.1285 97.8627 10.389 98.4978 10.6495C99.1328 10.8938 99.6865 11.3009 100.159 11.8708C100.647 12.4245 100.9 13.1735 100.916 14.118C100.916 14.9159 100.688 15.6323 100.232 16.2674C99.7923 16.8862 99.1491 17.3747 98.3023 17.7329C97.4719 18.0912 96.503 18.2703 95.3957 18.2703Z" fill="#69B99D"/>
<path d="M102.641 11.2357C102.641 9.83535 102.901 8.60593 103.422 7.54749C103.96 6.48905 104.684 5.67487 105.596 5.10494C106.508 4.53501 107.526 4.25004 108.649 4.25004C109.61 4.25004 110.449 4.44545 111.165 4.83625C111.898 5.22706 112.46 5.74 112.851 6.37506V4.44545H117.027V18.0749H112.851V16.1453C112.444 16.7803 111.874 17.2933 111.141 17.6841C110.424 18.0749 109.586 18.2703 108.625 18.2703C107.518 18.2703 106.508 17.9853 105.596 17.4154C104.684 16.8292 103.96 16.0069 103.422 14.9484C102.901 13.8737 102.641 12.6361 102.641 11.2357ZM112.851 11.2602C112.851 10.218 112.558 9.39569 111.971 8.79319C111.401 8.19069 110.701 7.88945 109.871 7.88945C109.04 7.88945 108.332 8.19069 107.746 8.79319C107.176 9.37941 106.891 10.1936 106.891 11.2357C106.891 12.2779 107.176 13.1084 107.746 13.7271C108.332 14.3296 109.04 14.6309 109.871 14.6309C110.701 14.6309 111.401 14.3296 111.971 13.7271C112.558 13.1247 112.851 12.3023 112.851 11.2602Z" fill="#69B99D"/>
<path d="M124.226 0V18.0749H120.049V0H124.226Z" fill="#69B99D"/>
<path d="M133.457 18.2703C132.122 18.2703 130.917 17.9853 129.842 17.4154C128.783 16.8455 127.945 16.0313 127.326 14.9729C126.723 13.9144 126.422 12.6769 126.422 11.2602C126.422 9.85977 126.732 8.63035 127.35 7.57192C127.969 6.49719 128.816 5.67487 129.891 5.10494C130.965 4.53501 132.17 4.25004 133.506 4.25004C134.841 4.25004 136.046 4.53501 137.121 5.10494C138.195 5.67487 139.042 6.49719 139.661 7.57192C140.28 8.63035 140.589 9.85977 140.589 11.2602C140.589 12.6606 140.272 13.8981 139.636 14.9729C139.018 16.0313 138.163 16.8455 137.072 17.4154C135.997 17.9853 134.792 18.2703 133.457 18.2703ZM133.457 14.6553C134.255 14.6553 134.93 14.3622 135.484 13.776C136.054 13.1898 136.339 12.3512 136.339 11.2602C136.339 10.1692 136.062 9.33055 135.509 8.74434C134.971 8.15813 134.304 7.86502 133.506 7.86502C132.691 7.86502 132.016 8.15813 131.478 8.74434C130.941 9.31427 130.672 10.1529 130.672 11.2602C130.672 12.3512 130.933 13.1898 131.454 13.776C131.991 14.3622 132.659 14.6553 133.457 14.6553Z" fill="#69B99D"/>
<path d="M151.11 4.29889C152.705 4.29889 153.976 4.81997 154.92 5.86213C155.881 6.888 156.361 8.30468 156.361 10.1122V18.0749H152.209V10.674C152.209 9.76207 151.973 9.05373 151.5 8.54894C151.028 8.04414 150.393 7.79174 149.595 7.79174C148.797 7.79174 148.162 8.04414 147.69 8.54894C147.218 9.05373 146.982 9.76207 146.982 10.674V18.0749H142.805V4.44545H146.982V6.25294C147.405 5.65044 147.975 5.17821 148.691 4.83625C149.408 4.47801 150.214 4.29889 151.11 4.29889Z" fill="#69B99D"/>
<path d="M161.592 18.2703C160.86 18.2703 160.257 18.0586 159.785 17.6352C159.329 17.1955 159.101 16.6582 159.101 16.0231C159.101 15.3718 159.329 14.8263 159.785 14.3866C160.257 13.9469 160.86 13.7271 161.592 13.7271C162.309 13.7271 162.895 13.9469 163.351 14.3866C163.823 14.8263 164.059 15.3718 164.059 16.0231C164.059 16.6582 163.823 17.1955 163.351 17.6352C162.895 18.0586 162.309 18.2703 161.592 18.2703Z" fill="#0F241D"/>
</svg>
